# xmcd CD database file
#
# Track frame offsets:
#	150
#	74557
#	127122
#	173937
#	212663
#
# Disc length: 3408 seconds
#
# Revision: 0
# Processed by: cddbd v1.5.2PL0 Copyright (c) Steve Scherf et al.
# Submitted via: CDex 1.70beta2
#
DISCID=4d0d4e05
DTITLE=Rich Halley - Live At Beanbenders
DYEAR=1998
DGENRE=Jazz
TTITLE0=648
TTITLE1=20.C
TTITLE2=Muddy Base Paths
TTITLE3=Springtime In Portland
TTITLE4=Northern Plains
EXTD=YEAR: 1998
EXTT0=
EXTT1=
EXTT2=
EXTT3=
EXTT4=
PLAYORDER=
